<?xml version="1.0" encoding="UTF-8"?>
<svg width="17px" height="17px" viewBox="0 0 17 17" version="1.1" xmlns="http://www.w3.org/2000/svg" xmlns:xlink="http://www.w3.org/1999/xlink">
    <title>C92BB4BD-933A-48DC-82BB-D0B224434723</title>
    <g id="Manager" stroke="none" stroke-width="1" fill="none" fill-rule="evenodd">
        <g id="Radio-live" transform="translate(-71.000000, -415.000000)" fill="#C1C7D0" fill-rule="nonzero">
            <g id="Copia-de-chat" transform="translate(71.000000, 415.000000)">
                <path d="M15.1785727,0 L1.8214273,0 C0.815480039,0 0,0.815486676 0,1.82144212 L0,11.535812 C0,12.5417674 0.815480039,13.3572541 1.8214273,13.3572541 L3.9767948,13.3572541 L3.6465188,16.3262048 C3.60969893,16.6595073 3.85004196,16.9595117 4.18334181,16.9963318 C4.35545246,17.0153289 4.52749196,16.9599386 4.65620141,16.8441062 L8.53096782,13.3572541 L15.1785727,13.3572541 C16.18452,13.3572541 17,12.5417674 17,11.535812 L17,1.82144212 C17,0.815486676 16.18452,0 15.1785727,0 Z M15.785727,11.535812 C15.785727,11.8711423 15.5138647,12.1429712 15.1785371,12.1429712 L8.2978109,12.1429712 C8.14779217,12.1430068 8.00310965,12.1986106 7.89161838,12.2990033 L5.02955843,14.8751344 L5.25844639,12.8175096 C5.29565758,12.4842782 5.05570588,12.1839537 4.7224416,12.1467066 C4.70002951,12.1442163 4.67751069,12.1429356 4.6549563,12.1429712 L1.8214273,12.1429712 C1.48609969,12.1429712 1.21427301,11.8711423 1.21427301,11.535812 L1.21427301,1.82144212 C1.21427301,1.48611178 1.48609969,1.21428289 1.8214273,1.21428289 L15.1785727,1.21428289 C15.5139003,1.21428289 15.785727,1.48611178 15.785727,1.82144212 L15.785727,11.535812 L15.785727,11.535812 Z" id="Shape"></path>
            </g>
        </g>
    </g>
</svg>