<?xml version="1.0" encoding="UTF-8"?>
<svg width="290px" height="31px" viewBox="0 0 290 31" version="1.1" xmlns="http://www.w3.org/2000/svg" xmlns:xlink="http://www.w3.org/1999/xlink">
    <title>223A4304-4064-4024-AD85-E6F4D2300AB8</title>
    <defs>
        <filter id="filter-1">
            <feColorMatrix in="SourceGraphic" type="matrix" values="0 0 0 0 0.286275 0 0 0 0 0.298039 0 0 0 0 0.313725 0 0 0 1.000000 0"></feColorMatrix>
        </filter>
    </defs>
    <g id="Manager" stroke="none" stroke-width="1" fill="none" fill-rule="evenodd" stroke-linecap="round">
        <g id="Group-3" transform="translate(-43.000000, -318.000000)" filter="url(#filter-1)">
            <g transform="translate(44.000000, 319.000000)">
                <g id="Group-2" stroke="#979797" stroke-width="2">
                    <line x1="0.5" y1="5.5" x2="0.5" y2="23.5" id="Line-17"></line>
                    <line x1="6.5" y1="5.5" x2="6.5" y2="23.5" id="Line-17"></line>
                    <line x1="12.5" y1="5.5" x2="12.5" y2="23.5" id="Line-17"></line>
                    <line x1="18.5" y1="5.5" x2="18.5" y2="23.5" id="Line-17"></line>
                    <line x1="24.5" y1="5.5" x2="24.5" y2="23.5" id="Line-17"></line>
                    <line x1="30.5" y1="6.59194921e-17" x2="30.5" y2="29" id="Line-17"></line>
                </g>
                <g id="Group-2" transform="translate(37.000000, 0.000000)" stroke="#979797" stroke-width="2">
                    <line x1="0.5" y1="5.5" x2="0.5" y2="23.5" id="Line-17"></line>
                    <line x1="6.5" y1="5.5" x2="6.5" y2="23.5" id="Line-17"></line>
                    <line x1="12.5" y1="5.5" x2="12.5" y2="23.5" id="Line-17"></line>
                    <line x1="18.5" y1="5.5" x2="18.5" y2="23.5" id="Line-17"></line>
                    <line x1="24.5" y1="5.5" x2="24.5" y2="23.5" id="Line-17"></line>
                    <line x1="30.5" y1="6.59194921e-17" x2="30.5" y2="29" id="Line-17"></line>
                </g>
                <g id="Group-2" transform="translate(73.000000, 0.000000)" stroke="#979797" stroke-width="2">
                    <line x1="0.5" y1="5.5" x2="0.5" y2="23.5" id="Line-17"></line>
                    <line x1="6.5" y1="5.5" x2="6.5" y2="23.5" id="Line-17"></line>
                    <line x1="12.5" y1="5.5" x2="12.5" y2="23.5" id="Line-17"></line>
                    <line x1="18.5" y1="5.5" x2="18.5" y2="23.5" id="Line-17"></line>
                    <line x1="24.5" y1="5.5" x2="24.5" y2="23.5" id="Line-17"></line>
                    <line x1="30.5" y1="6.59194921e-17" x2="30.5" y2="29" id="Line-17"></line>
                </g>
                <g id="Group-2" transform="translate(110.000000, 0.000000)" stroke="#979797" stroke-width="2">
                    <line x1="0.5" y1="5.5" x2="0.5" y2="23.5" id="Line-17"></line>
                    <line x1="6.5" y1="5.5" x2="6.5" y2="23.5" id="Line-17"></line>
                    <line x1="12.5" y1="5.5" x2="12.5" y2="23.5" id="Line-17"></line>
                    <line x1="18.5" y1="5.5" x2="18.5" y2="23.5" id="Line-17"></line>
                    <line x1="24.5" y1="5.5" x2="24.5" y2="23.5" id="Line-17"></line>
                    <line x1="30.5" y1="6.59194921e-17" x2="30.5" y2="29" id="Line-17"></line>
                </g>
                <g id="Group-2" transform="translate(147.000000, 0.000000)" stroke="#979797" stroke-width="2">
                    <line x1="0.5" y1="5.5" x2="0.5" y2="23.5" id="Line-17"></line>
                    <line x1="6.5" y1="5.5" x2="6.5" y2="23.5" id="Line-17"></line>
                    <line x1="12.5" y1="5.5" x2="12.5" y2="23.5" id="Line-17"></line>
                    <line x1="18.5" y1="5.5" x2="18.5" y2="23.5" id="Line-17"></line>
                    <line x1="24.5" y1="5.5" x2="24.5" y2="23.5" id="Line-17"></line>
                    <line x1="30.5" y1="6.59194921e-17" x2="30.5" y2="29" id="Line-17"></line>
                </g>
                <g id="Group-2" transform="translate(184.000000, 0.000000)" stroke="#979797" stroke-width="2">
                    <line x1="0.5" y1="5.5" x2="0.5" y2="23.5" id="Line-17"></line>
                    <line x1="6.5" y1="5.5" x2="6.5" y2="23.5" id="Line-17"></line>
                    <line x1="12.5" y1="5.5" x2="12.5" y2="23.5" id="Line-17"></line>
                    <line x1="18.5" y1="5.5" x2="18.5" y2="23.5" id="Line-17"></line>
                    <line x1="24.5" y1="5.5" x2="24.5" y2="23.5" id="Line-17"></line>
                    <line x1="30.5" y1="6.59194921e-17" x2="30.5" y2="29" id="Line-17"></line>
                </g>
                <g id="Group-2" transform="translate(220.000000, 0.000000)" stroke="#979797" stroke-width="2">
                    <line x1="0.5" y1="5.5" x2="0.5" y2="23.5" id="Line-17"></line>
                    <line x1="6.5" y1="5.5" x2="6.5" y2="23.5" id="Line-17"></line>
                    <line x1="12.5" y1="5.5" x2="12.5" y2="23.5" id="Line-17"></line>
                    <line x1="18.5" y1="5.5" x2="18.5" y2="23.5" id="Line-17"></line>
                    <line x1="24.5" y1="5.5" x2="24.5" y2="23.5" id="Line-17"></line>
                    <line x1="30.5" y1="6.59194921e-17" x2="30.5" y2="29" id="Line-17"></line>
                </g>
                <g id="Group-2" transform="translate(257.000000, 0.000000)" stroke="#979797" stroke-width="2">
                    <line x1="0.5" y1="5.5" x2="0.5" y2="23.5" id="Line-17"></line>
                    <line x1="6.5" y1="5.5" x2="6.5" y2="23.5" id="Line-17"></line>
                    <line x1="12.5" y1="5.5" x2="12.5" y2="23.5" id="Line-17"></line>
                    <line x1="18.5" y1="5.5" x2="18.5" y2="23.5" id="Line-17"></line>
                    <line x1="24.5" y1="5.5" x2="24.5" y2="23.5" id="Line-17"></line>
                    <line x1="30.5" y1="6.59194921e-17" x2="30.5" y2="29" id="Line-17"></line>
                </g>
            </g>
        </g>
    </g>
</svg>