<?xml version="1.0" encoding="UTF-8"?>
<svg width="11px" height="16px" viewBox="0 0 11 16" version="1.1" xmlns="http://www.w3.org/2000/svg" xmlns:xlink="http://www.w3.org/1999/xlink">
    <title>6AA950F3-3F5E-491E-8E6B-CE6EA75331D1</title>
    <g id="Manager" stroke="none" stroke-width="1" fill="none" fill-rule="evenodd">
        <g id="Radio-live" transform="translate(-182.000000, -730.000000)" fill="#FFBE00" fill-rule="nonzero">
            <g id="microphone" transform="translate(187.500000, 738.000000) scale(-1, 1) translate(-187.500000, -738.000000) translate(182.000000, 730.000000)">
                <path d="M11,8.16611007 C11,7.90872382 10.7734841,7.7 10.4940282,7.7 C10.2145723,7.7 9.98805642,7.90872382 9.98805642,8.16611007 C9.98805642,10.4465667 7.97478319,12.3017039 5.49993529,12.3017039 C3.02521681,12.3017039 1.01194355,10.4465667 1.01194355,8.16611007 C1.01194355,7.90872382 0.785427673,7.7 0.505971774,7.7 C0.226515908,7.7 0,7.90872382 0,8.16611007 C0,10.8035441 2.19759244,12.9762992 4.99396351,13.2124553 L4.99396351,14.4675413 L3.11634091,14.4675413 C2.83688501,14.4675413 2.61036914,14.6762651 2.61036914,14.9337707 C2.61036914,15.1912762 2.83688501,15.4 3.11634091,15.4 L7.88365909,15.4 C8.16298552,15.4 8.38950143,15.1912762 8.38950143,14.9337707 C8.38950143,14.6762651 8.16298552,14.4675413 7.88365909,14.4675413 L6.00590706,14.4675413 L6.00590706,13.2124553 C8.80240753,12.9764185 11,10.8035441 11,8.16611007 Z" id="Path"></path>
                <path d="M5.49993896,11 C7.1848071,11 8.55555556,9.70604508 8.55555556,8.11556836 L8.55555556,2.8843164 C8.55555556,1.29395495 7.1848071,0 5.49993896,0 C3.8151929,0 2.44444444,1.29395495 2.44444444,2.8843164 L2.44444444,8.11556836 C2.44444444,9.70604508 3.8151929,11 5.49993896,11 L5.49993896,11 Z M3.39876762,2.8843164 C3.39876762,1.79065478 4.34137082,0.900974319 5.49993896,0.900974319 C6.65850707,0.900974319 7.6011103,1.79065478 7.6011103,2.8843164 L7.6011103,8.11556836 C7.6011103,9.20922998 6.65850707,10.0990257 5.49993896,10.0990257 C4.34137082,10.0990257 3.39876762,9.20922998 3.39876762,8.11556836 L3.39876762,2.8843164 Z" id="Shape"></path>
            </g>
        </g>
    </g>
</svg>