<?xml version="1.0" encoding="UTF-8"?>
<svg width="12px" height="14px" viewBox="0 0 12 14" version="1.1" xmlns="http://www.w3.org/2000/svg" xmlns:xlink="http://www.w3.org/1999/xlink">
    <title>9C94DB79-B5D5-4D63-A886-7CA113A69064</title>
    <g id="Manager" stroke="none" stroke-width="1" fill="none" fill-rule="evenodd">
        <g id="Radio-live" transform="translate(-183.000000, -416.000000)" fill="#FFBE00" fill-rule="nonzero">
            <g id="pause" transform="translate(183.000000, 416.000000)">
                <path d="M4.06247253,0 L0.937498169,0 C0.420614413,0 0,0.392574219 0,0.875 L0,13.125 C0,13.6074258 0.420614413,14 0.937498169,14 L4.06250183,14 C4.57938559,14 5,13.6074258 5,13.125 L5,0.875 C5,0.392574219 4.57935629,0 4.06247253,0 Z" id="Path"></path>
                <path d="M11.0624725,0 L7.93749817,0 C7.42061441,0 7,0.392574219 7,0.875 L7,13.125 C7,13.6074258 7.42061441,14 7.93749817,14 L11.0625018,14 C11.5793856,14 12,13.6074258 12,13.125 L12,0.875 C12,0.392574219 11.5793563,0 11.0624725,0 Z" id="Path"></path>
            </g>
        </g>
    </g>
</svg>