<?xml version="1.0" encoding="UTF-8"?>
<svg width="12px" height="14px" viewBox="0 0 12 14" version="1.1" xmlns="http://www.w3.org/2000/svg" xmlns:xlink="http://www.w3.org/1999/xlink">
    <title>579215C2-E446-43FB-A348-2D6E8A8576DA</title>
    <g id="Manager" stroke="none" stroke-width="1" fill="none" fill-rule="evenodd">
        <g id="Radio-live" transform="translate(-303.000000, -607.000000)" fill="#C1C7D0" fill-rule="nonzero">
            <path d="M312.477031,614.799603 C312.477031,616.535998 311.140134,617.972509 309.420403,618.176199 L309.420403,617.623002 C310.830029,617.423017 311.916475,616.233167 311.916475,614.799603 L311.916475,611.651578 L315,608.635009 L314.405443,608.053362 L311.916475,610.488284 L311.916475,609.853146 C311.916475,608.279904 310.608135,607 309,607 C307.391865,607 306.083525,608.279904 306.083525,609.853146 L306.083525,614.799603 C306.083525,615.209282 306.172399,615.598975 306.332013,615.95143 L305.91219,616.362136 C305.663647,615.89399 305.522969,615.362563 305.522969,614.799576 L305.522969,613.420451 L304.682136,613.420451 L304.682136,614.799576 C304.682136,615.591052 304.906021,616.332281 305.294772,616.966175 L303,619.211118 L303.594557,619.792764 L305.801257,617.633981 C306.50332,618.391544 307.481956,618.89939 308.579597,619.003642 L308.579597,620.023552 L306.503955,620.023552 L306.503955,620.846154 L311.496045,620.846154 L311.496045,620.023579 L309.420403,620.023579 L309.420403,619.003669 C311.604711,618.79622 313.317864,616.990054 313.317864,614.79963 L313.317864,613.420505 L312.477031,613.420505 L312.477031,614.799603 L312.477031,614.799603 Z M306.924358,609.853146 C306.924358,608.733501 307.85553,607.822575 309.000028,607.822575 C310.144525,607.822575 311.07567,608.733501 311.07567,609.853146 L311.07567,611.310859 L306.99015,615.307638 C306.947247,615.145216 306.924358,614.974979 306.924358,614.799603 L306.924358,609.853146 L306.924358,609.853146 Z M308.57957,618.176199 C307.714521,618.073732 306.946445,617.659321 306.39656,617.051632 L306.793466,616.663344 C307.241927,617.170757 307.869767,617.522347 308.57957,617.623029 L308.57957,618.176199 Z M309,616.830201 C308.351123,616.830201 307.771079,616.537215 307.390152,616.079588 L311.075642,612.474153 L311.075642,614.799603 L311.075642,614.799603 C311.075642,615.919276 310.14447,616.830201 309,616.830201 Z" id="Shape"></path>
        </g>
    </g>
</svg>