<?xml version="1.0" encoding="UTF-8"?>
<svg width="12px" height="14px" viewBox="0 0 12 14" version="1.1" xmlns="http://www.w3.org/2000/svg" xmlns:xlink="http://www.w3.org/1999/xlink">
    <title>C6505FB5-5E56-49DD-8B8C-30030043719F</title>
    <g id="Manager" stroke="none" stroke-width="1" fill="none" fill-rule="evenodd">
        <g id="Radio-live" transform="translate(-65.000000, -607.000000)" fill="#C1C7D0" fill-rule="nonzero">
            <path d="M74.4770305,614.799603 C74.4770305,616.535998 73.1401343,617.972509 71.4204028,618.176199 L71.4204028,617.623002 C72.8300292,617.423017 73.9164751,616.233167 73.9164751,614.799603 L73.9164751,611.651578 L77,608.635009 L76.405443,608.053362 L73.9164751,610.488284 L73.9164751,609.853146 C73.9164751,608.279904 72.6081346,607 71,607 C69.3918654,607 68.0835249,608.279904 68.0835249,609.853146 L68.0835249,614.799603 C68.0835249,615.209282 68.1723989,615.598975 68.3320126,615.95143 L67.9121903,616.362136 C67.6636474,615.89399 67.5229695,615.362563 67.5229695,614.799576 L67.5229695,613.420451 L66.6821363,613.420451 L66.6821363,614.799576 C66.6821363,615.591052 66.9060212,616.332281 67.2947721,616.966175 L65,619.211118 L65.594557,619.792764 L67.8012569,617.633981 C68.5033195,618.391544 69.4819557,618.89939 70.5795972,619.003642 L70.5795972,620.023552 L68.5039553,620.023552 L68.5039553,620.846154 L73.4960447,620.846154 L73.4960447,620.023579 L71.4204028,620.023579 L71.4204028,619.003669 C73.6047114,618.79622 75.3178637,616.990054 75.3178637,614.79963 L75.3178637,613.420505 L74.4770305,613.420505 L74.4770305,614.799603 L74.4770305,614.799603 Z M68.9243581,609.853146 C68.9243581,608.733501 69.8555303,607.822575 71.0000276,607.822575 C72.144525,607.822575 73.0756695,608.733501 73.0756695,609.853146 L73.0756695,611.310859 L68.9901497,615.307638 C68.9472469,615.145216 68.9243581,614.974979 68.9243581,614.799603 L68.9243581,609.853146 L68.9243581,609.853146 Z M70.5795696,618.176199 C69.7145207,618.073732 68.9464453,617.659321 68.3965602,617.051632 L68.793466,616.663344 C69.2419269,617.170757 69.8697667,617.522347 70.5795696,617.623029 L70.5795696,618.176199 Z M71,616.830201 C70.3511235,616.830201 69.7710793,616.537215 69.3901515,616.079588 L73.0756419,612.474153 L73.0756419,614.799603 L73.0756419,614.799603 C73.0756419,615.919276 72.1444697,616.830201 71,616.830201 Z" id="Shape"></path>
        </g>
    </g>
</svg>