<?xml version="1.0" encoding="UTF-8"?>
<svg width="12px" height="14px" viewBox="0 0 12 14" version="1.1" xmlns="http://www.w3.org/2000/svg" xmlns:xlink="http://www.w3.org/1999/xlink">
    <title>7B67A126-FFAF-45B3-BB43-A11543E00A13</title>
    <g id="Manager" stroke="none" stroke-width="1" fill="none" fill-rule="evenodd">
        <g id="Radio-live" transform="translate(-182.000000, -607.000000)" fill="#C1C7D0" fill-rule="nonzero">
            <path d="M191.477031,614.799603 C191.477031,616.535998 190.140134,617.972509 188.420403,618.176199 L188.420403,617.623002 C189.830029,617.423017 190.916475,616.233167 190.916475,614.799603 L190.916475,611.651578 L194,608.635009 L193.405443,608.053362 L190.916475,610.488284 L190.916475,609.853146 C190.916475,608.279904 189.608135,607 188,607 C186.391865,607 185.083525,608.279904 185.083525,609.853146 L185.083525,614.799603 C185.083525,615.209282 185.172399,615.598975 185.332013,615.95143 L184.91219,616.362136 C184.663647,615.89399 184.522969,615.362563 184.522969,614.799576 L184.522969,613.420451 L183.682136,613.420451 L183.682136,614.799576 C183.682136,615.591052 183.906021,616.332281 184.294772,616.966175 L182,619.211118 L182.594557,619.792764 L184.801257,617.633981 C185.50332,618.391544 186.481956,618.89939 187.579597,619.003642 L187.579597,620.023552 L185.503955,620.023552 L185.503955,620.846154 L190.496045,620.846154 L190.496045,620.023579 L188.420403,620.023579 L188.420403,619.003669 C190.604711,618.79622 192.317864,616.990054 192.317864,614.79963 L192.317864,613.420505 L191.477031,613.420505 L191.477031,614.799603 L191.477031,614.799603 Z M185.924358,609.853146 C185.924358,608.733501 186.85553,607.822575 188.000028,607.822575 C189.144525,607.822575 190.07567,608.733501 190.07567,609.853146 L190.07567,611.310859 L185.99015,615.307638 C185.947247,615.145216 185.924358,614.974979 185.924358,614.799603 L185.924358,609.853146 L185.924358,609.853146 Z M187.57957,618.176199 C186.714521,618.073732 185.946445,617.659321 185.39656,617.051632 L185.793466,616.663344 C186.241927,617.170757 186.869767,617.522347 187.57957,617.623029 L187.57957,618.176199 Z M188,616.830201 C187.351123,616.830201 186.771079,616.537215 186.390152,616.079588 L190.075642,612.474153 L190.075642,614.799603 L190.075642,614.799603 C190.075642,615.919276 189.14447,616.830201 188,616.830201 Z" id="Shape"></path>
        </g>
    </g>
</svg>